# xmcd
#
# Track frame offsets:
#	150
#	46945
#	81017
#	129172
#	160065
#	203860
#
# Disc length: 3453 seconds
#
# Revision: 2
# Processed by: cddbd v1.5.2PL0 Copyright (c) Steve Scherf et al.
# Submitted via: EasyCDDAExtractor 12.0.1.1
#
DISCID=400d7b06
DTITLE=Harper Lee - To Kill A Mockingbird [CD09 of 11)
DYEAR=2006
DGENRE=Audiobook
TTITLE0=Twenty Three
TTITLE1=Atticus was speaking so quietly...
TTITLE2=I remembered the distant disastrous occasion...
TTITLE3=Twenty Four
TTITLE4=Mrs. Grace Merriweather sat on my left...
TTITLE5=Aunt Alexandra got up from the table...
EXTD=YEAR: 2006
EXTT0=
EXTT1=
EXTT2=
EXTT3=
EXTT4=
EXTT5=
PLAYORDER=
